# xmcd
#
# Track frame offsets:
#	150
#	15337
#	28944
#	44021
#	60717
#	74045
#	88440
#	102940
#	114977
#	131052
#	147314
#	162637
#	174304
#
# Disc length: 2519 seconds
#
# Revision: 2
# Processed by: cddbd v1.5.2PL0 Copyright (c) Steve Scherf et al.
# Submitted via: EZCDAudioConverter 7.0.6.1
#
DISCID=c209d50d
DTITLE=Big and Rich - Did It For The Party
DYEAR=2017
DGENRE=Country
TTITLE0=California
TTITLE1=Did It For The Party
TTITLE2=Congratulations (You're A Rockstar)
TTITLE3=Turns Me On
TTITLE4=Wake Up Wanting You
TTITLE5=Smoke In Her Eyes
TTITLE6=No Sleep
TTITLE7=We Came To Rawk
TTITLE8=Funk In The Country
TTITLE9=The Long Way Home
TTITLE10=Freedom Radio
TTITLE11=My Son Featuring The Isaacs
TTITLE12=Lie Cheap Or Steal
EXTD=
EXTT0=
EXTT1=
EXTT2=
EXTT3=
EXTT4=
EXTT5=
EXTT6=
EXTT7=
EXTT8=
EXTT9=
EXTT10=
EXTT11=
EXTT12=
PLAYORDER=
